<svg xmlns="http://www.w3.org/2000/svg" width="16.905" height="18.983" viewBox="0 0 16.905 18.983">
  <defs>
    <style></style>
  </defs>
  <path class="a"
    d="M160.322,1.98a.345.345,0,0,1,.371.486,3.3,3.3,0,0,1-2.881,1.518,3.253,3.253,0,0,1-2.871-1.527.33.33,0,0,1,.354-.466A16.421,16.421,0,0,0,160.322,1.98ZM150.4-5.738v-1.85A7.411,7.411,0,0,1,157.809-15h0a7.411,7.411,0,0,1,7.411,7.411v1.85a6.357,6.357,0,0,1,1.04,3.394C166.263.1,162.476.82,157.811.82S149.358.1,149.358-2.344A6.357,6.357,0,0,1,150.4-5.738Z"
    transform="translate(-149.358 15)" />
</svg>
