<svg xmlns="http://www.w3.org/2000/svg" width="16.861" height="21.903" viewBox="0 0 16.861 21.903">
  <defs>
    <style></style>
  </defs>
  <path class="a"
    d="M103.716,6.719a1.26,1.26,0,0,1-1.343-.02,1.505,1.505,0,0,1-.666-1.269V-12.232a2.894,2.894,0,0,1,.746-1.957,2.443,2.443,0,0,1,1.8-.811h11.773a2.445,2.445,0,0,1,1.8.811,2.893,2.893,0,0,1,.745,1.957V5.43A1.5,1.5,0,0,1,117.9,6.7a1.26,1.26,0,0,1-1.343.02L111.371,3.6a2.37,2.37,0,0,0-2.467,0ZM114.8-8.451a1.05,1.05,0,0,0-1-1.091H106.48a1.05,1.05,0,0,0-1,1.091v0a1.05,1.05,0,0,0,1,1.091h7.315a1.049,1.049,0,0,0,1-1.091Z"
    transform="translate(-101.707 15)" />
</svg>
