<svg xmlns="http://www.w3.org/2000/svg" xmlns:xlink="http://www.w3.org/1999/xlink" width="22.321" height="21.695" viewBox="0 0 22.321 21.695"><defs><style></style><linearGradient id="a" x1="0.876" y1="0.073" x2="-0.272" y2="1.588" gradientUnits="objectBoundingBox"><stop offset="0" stop-color="#ff6c1d"/><stop offset="1" stop-color="#ff6e53"/></linearGradient></defs><path class="a" d="M3.478,6.6A3.478,3.478,0,0,1,0,3.127V-4.243A6.49,6.49,0,0,1,2.652-9.477l6.966-5.108a2.609,2.609,0,0,1,3.086,0l6.965,5.108a6.49,6.49,0,0,1,2.652,5.234V3.127A3.478,3.478,0,0,1,18.844,6.6H17.49A2.609,2.609,0,0,1,14.881,4V1.011A1.847,1.847,0,0,0,13.034-.836H9.287A1.847,1.847,0,0,0,7.44,1.011V4A2.609,2.609,0,0,1,4.831,6.6Z" transform="translate(0 15.09)"/></svg>
